<?xml version="1.0" encoding="UTF-8"?><svg xmlns="http://www.w3.org/2000/svg" xmlns:xlink="http://www.w3.org/1999/xlink" fill-opacity="1" color-rendering="auto" color-interpolation="auto" text-rendering="auto" stroke="black" stroke-linecap="square" width="191" stroke-miterlimit="10" shape-rendering="auto" stroke-opacity="1" fill="black" stroke-dasharray="none" font-weight="normal" stroke-width="1" height="362" font-family="'Dialog'" font-style="normal" stroke-linejoin="miter" font-size="12px" stroke-dashoffset="0" image-rendering="auto">
  <!--Generated by ySVG 2.5-->
  <defs id="genericDefs"/>
  <g>
    <defs id="defs1">
      <clipPath clipPathUnits="userSpaceOnUse" id="clipPath1">
        <path d="M0 0 L191 0 L191 362 L0 362 L0 0 Z"/>
      </clipPath>
      <clipPath clipPathUnits="userSpaceOnUse" id="clipPath2">
        <path d="M-203 -198 L-12 -198 L-12 164 L-203 164 L-203 -198 Z"/>
      </clipPath>
    </defs>
    <g fill="white" text-rendering="geometricPrecision" shape-rendering="geometricPrecision" transform="translate(203,198)" stroke="white">
      <rect x="-203" width="191" height="362" y="-198" clip-path="url(#clipPath2)" stroke="none"/>
    </g>
    <g text-rendering="geometricPrecision" stroke-miterlimit="1.45" shape-rendering="geometricPrecision" font-family="sans-serif" transform="matrix(1,0,0,1,203,198)" stroke-linecap="butt">
      <text x="-139.7549" xml:space="preserve" y="36.0352" clip-path="url(#clipPath2)" stroke="none">I3Equatorial</text>
      <rect fill="none" x="-163" width="116" height="39" y="12" clip-path="url(#clipPath2)"/>
      <text x="-137.0098" xml:space="preserve" y="-61.3648" clip-path="url(#clipPath2)" stroke="none">I3Direction</text>
      <rect fill="none" x="-163" width="116" height="39" y="-85.4" clip-path="url(#clipPath2)"/>
      <text x="-133.3447" xml:space="preserve" y="133.4352" clip-path="url(#clipPath2)" stroke="none">I3Galactic</text>
      <rect fill="none" x="-163" width="116" height="39" y="109.4" clip-path="url(#clipPath2)"/>
      <text x="-171.5627" xml:space="preserve" y="-158.7648" clip-path="url(#clipPath2)" stroke="none">Moon</text>
      <rect fill="none" x="-187.8" width="65" height="39" y="-182.8" clip-path="url(#clipPath2)"/>
      <text x="-70.9787" xml:space="preserve" y="-158.7648" clip-path="url(#clipPath2)" stroke="none">Sun</text>
      <rect fill="none" x="-92.8" width="65" height="39" y="-182.8" clip-path="url(#clipPath2)"/>
      <path fill="none" d="M-105 12 L-105 -38.4" clip-path="url(#clipPath2)"/>
      <path d="M-105 -46.4 L-110 -34.4 L-105 -37.4 L-100 -34.4 Z" clip-path="url(#clipPath2)" stroke="none"/>
      <path fill="none" d="M-105 -46.4 L-105 4" clip-path="url(#clipPath2)"/>
      <path d="M-105 12 L-100 0 L-105 3 L-110 0 Z" clip-path="url(#clipPath2)" stroke="none"/>
      <text x="-94.9951" xml:space="preserve" y="-12.6648" clip-path="url(#clipPath2)" stroke="none">I3Time</text>
      <path fill="none" d="M-105 51 L-105 101.4" clip-path="url(#clipPath2)"/>
      <path d="M-105 109.4 L-100 97.4 L-105 100.4 L-110 97.4 Z" clip-path="url(#clipPath2)" stroke="none"/>
      <path fill="none" d="M-105 109.4 L-105 59" clip-path="url(#clipPath2)"/>
      <path d="M-105 51 L-110 63 L-105 60 L-100 63 Z" clip-path="url(#clipPath2)" stroke="none"/>
      <path fill="none" d="M-145.2297 -143.8 L-118.7411 -92.5081" clip-path="url(#clipPath2)"/>
      <path d="M-115.0703 -85.4 L-116.134 -98.3564 L-119.2 -93.3966 L-125.0191 -93.7679 Z" clip-path="url(#clipPath2)" stroke="none"/>
      <text x="-183.9094" xml:space="preserve" y="-110.0648" clip-path="url(#clipPath2)" stroke="none">I3Time</text>
      <path fill="none" d="M-69.2492 -143.8 L-92.714 -92.6709" clip-path="url(#clipPath2)"/>
      <path d="M-96.0508 -85.4 L-86.5013 -94.2208 L-92.2969 -93.5797 L-95.5899 -98.3918 Z" clip-path="url(#clipPath2)" stroke="none"/>
      <text x="-69.6367" xml:space="preserve" y="-110.0648" clip-path="url(#clipPath2)" stroke="none">I3Time</text>
    </g>
  </g>
</svg>
